<?xml version="1.0" encoding="UTF-8" standalone="no"?> <svg xmlns="http://www.w3.org/2000/svg" xmlns:xlink="http://www.w3.org/1999/xlink" xmlns:serif="http://www.serif.com/" width="100%" height="100%" viewBox="0 0 3405 823" version="1.1" xml:space="preserve" style="fill-rule:evenodd;clip-rule:evenodd;stroke-linejoin:round;stroke-miterlimit:2;"> <g transform="matrix(1,0,0,1,0,-2.46221)"> <g transform="matrix(4.16667,0,0,4.16667,0,0)"> <path d="M0,123.731L20.238,4.512L50.912,4.512L74.788,68.076L98.504,4.512L129.179,4.512L149.417,123.731L118.586,123.731L108.308,55.11L80.164,123.731L67.83,123.731L41.109,55.11L30.831,123.731L0,123.731Z" style="fill:rgb(17,21,23);fill-rule:nonzero;"></path> </g> <g transform="matrix(4.16667,0,0,4.16667,0,0)"> <path d="M323.724,4.512L352.501,77.088L381.437,4.512L415.114,4.512L364.834,123.731L340.169,123.731L290.046,4.512L323.724,4.512Z" style="fill:rgb(17,21,23);fill-rule:nonzero;"></path> </g> <g transform="matrix(4.16667,0,0,4.16667,0,0)"> <path d="M495.435,30.759L458.594,30.759L458.594,50.682L493.379,50.682L493.379,76.929L458.594,76.929L458.594,97.483L495.435,97.483L495.435,123.731L427.604,123.731L427.604,4.512L495.435,4.512L495.435,30.759Z" style="fill:rgb(17,21,23);fill-rule:nonzero;"></path> </g> <g transform="matrix(4.16667,0,0,4.16667,0,0)"> <path d="M517.726,123.731L517.726,4.512L548.716,4.512L605.954,77.403L605.954,4.512L636.786,4.512L636.786,123.731L605.954,123.731L548.716,50.841L548.716,123.731L517.726,123.731Z" style="fill:rgb(17,21,23);fill-rule:nonzero;"></path> </g> <g transform="matrix(4.16667,0,0,4.16667,0,0)"> <path d="M692.759,97.483L699.873,97.483C705.248,97.483 710.043,96.641 714.263,94.954C718.477,93.269 722.033,90.948 724.935,87.997C727.832,85.047 730.046,81.541 731.574,77.483C733.103,73.425 733.867,68.97 733.867,64.122C733.867,59.378 733.077,54.951 731.495,50.841C729.914,46.729 727.673,43.198 724.775,40.246C721.876,37.296 718.317,34.978 714.104,33.288C709.887,31.604 705.144,30.759 699.873,30.759L692.759,30.759L692.759,97.483ZM661.769,4.512L707.62,4.512C715.736,4.512 723.352,6.149 730.469,9.414C737.583,12.682 743.802,17.03 749.125,22.459C754.447,27.889 758.637,34.212 761.695,41.433C764.752,48.654 766.279,56.215 766.279,64.122C766.279,71.924 764.779,79.434 761.774,86.652C758.771,93.875 754.607,100.227 749.283,105.705C743.959,111.187 737.741,115.563 730.625,118.827C723.511,122.098 715.843,123.731 707.62,123.731L661.769,123.731L661.769,4.512Z" style="fill:rgb(17,21,23);fill-rule:nonzero;"></path> </g> <g transform="matrix(4.16667,0,0,4.16667,0,0)"> <rect x="786.044" y="4.512" width="30.991" height="119.219" style="fill:rgb(17,21,23);fill-rule:nonzero;"></rect> </g> <g transform="matrix(4.16667,0,0,4.16667,0,0)"> <rect x="5.056" y="159.143" width="4.142" height="37.181" style="fill:rgb(90,94,94);fill-rule:nonzero;"></rect> </g> <g transform="matrix(4.16667,0,0,4.16667,0,0)"> <path d="M53.979,157.564L82.974,187.94L82.974,159.143L87.116,159.143L87.116,198L58.121,167.674L58.121,196.324L53.979,196.324L53.979,157.564Z" style="fill:rgb(90,94,94);fill-rule:nonzero;"></path> </g> <g transform="matrix(4.16667,0,0,4.16667,0,0)"> <path d="M141.714,196.324L137.571,196.324L137.571,162.988L128.597,162.988L128.597,159.143L150.787,159.143L150.787,162.988L141.714,162.988L141.714,196.324Z" style="fill:rgb(90,94,94);fill-rule:nonzero;"></path> </g> <g transform="matrix(4.16667,0,0,4.16667,0,0)"> <path d="M192.018,159.143L211.298,159.143L211.298,162.988L196.16,162.988L196.16,174.034L210.855,174.034L210.855,177.881L196.16,177.881L196.16,192.478L211.298,192.478L211.298,196.324L192.018,196.324L192.018,159.143Z" style="fill:rgb(90,94,94);fill-rule:nonzero;"></path> </g> <g transform="matrix(4.16667,0,0,4.16667,0,0)"> <path d="M259.483,176.352L260.765,176.352C265.45,176.352 270.184,175.464 270.184,169.695C270.184,163.581 265.696,162.988 260.716,162.988L259.483,162.988L259.483,176.352ZM259.483,196.324L255.341,196.324L255.341,159.143L260.716,159.143C267.768,159.143 274.326,161.016 274.326,169.399C274.326,175.119 270.727,179.163 265.006,179.656L276.841,196.324L271.762,196.324L260.519,180.002L259.483,180.002L259.483,196.324Z" style="fill:rgb(90,94,94);fill-rule:nonzero;"></path> </g> <g transform="matrix(4.16667,0,0,4.16667,0,0)"> <path d="M319.305,157.564L348.301,187.94L348.301,159.143L352.443,159.143L352.443,198L323.447,167.674L323.447,196.324L319.305,196.324L319.305,157.564Z" style="fill:rgb(90,94,94);fill-rule:nonzero;"></path> </g> <g transform="matrix(4.16667,0,0,4.16667,0,0)"> <path d="M410.787,167.032L404.427,181.925L417.001,181.925L410.787,167.032ZM402.75,185.771L398.262,196.324L393.726,196.324L410.886,157.367L427.603,196.324L423.018,196.324L418.628,185.771L402.75,185.771Z" style="fill:rgb(90,94,94);fill-rule:nonzero;"></path> </g> <g transform="matrix(4.16667,0,0,4.16667,0,0)"> <path d="M474.563,196.324L470.42,196.324L470.42,162.988L461.445,162.988L461.445,159.143L483.636,159.143L483.636,162.988L474.563,162.988L474.563,196.324Z" style="fill:rgb(90,94,94);fill-rule:nonzero;"></path> </g> <g transform="matrix(4.16667,0,0,4.16667,0,0)"> <rect x="524.966" y="159.143" width="4.141" height="37.181" style="fill:rgb(90,94,94);fill-rule:nonzero;"></rect> </g> <g transform="matrix(4.16667,0,0,4.16667,0,0)"> <path d="M575.909,177.733C575.909,186.116 582.715,193.119 591.148,193.119C599.579,193.119 606.385,186.116 606.385,177.733C606.385,169.301 599.678,162.348 591.148,162.348C582.616,162.348 575.909,169.301 575.909,177.733ZM610.526,177.782C610.526,188.482 601.749,196.965 591.148,196.965C580.545,196.965 571.768,188.482 571.768,177.782C571.768,167.131 580.545,158.501 591.148,158.501C601.749,158.501 610.526,167.131 610.526,177.782Z" style="fill:rgb(90,94,94);fill-rule:nonzero;"></path> </g> <g transform="matrix(4.16667,0,0,4.16667,0,0)"> <path d="M653.387,157.564L682.383,187.94L682.383,159.143L686.524,159.143L686.524,198L657.529,167.674L657.529,196.324L653.387,196.324L653.387,157.564Z" style="fill:rgb(90,94,94);fill-rule:nonzero;"></path> </g> <g transform="matrix(4.16667,0,0,4.16667,0,0)"> <path d="M744.869,167.032L738.509,181.925L751.083,181.925L744.869,167.032ZM736.832,185.771L732.344,196.324L727.808,196.324L744.968,157.367L761.686,196.324L757.099,196.324L752.71,185.771L736.832,185.771Z" style="fill:rgb(90,94,94);fill-rule:nonzero;"></path> </g> <g transform="matrix(4.16667,0,0,4.16667,0,0)"> <path d="M806.861,192.478L817.118,192.478L817.118,196.324L802.72,196.324L802.72,159.143L806.861,159.143L806.861,192.478Z" style="fill:rgb(90,94,94);fill-rule:nonzero;"></path> </g> <g transform="matrix(4.16667,0,0,4.16667,0,0)"> <path d="M180.226,80.995C172.292,79.257 165.185,76.584 158.943,73.005C159.574,77.733 160.747,82.464 162.497,87.12C166.008,96.458 171.47,104.493 178.243,110.938C176.896,100.378 177.551,90.417 180.226,80.995Z" style="fill:rgb(18,112,175);fill-rule:nonzero;"></path> </g> <g transform="matrix(4.16667,0,0,4.16667,0,0)"> <path d="M241.117,105.481C231.945,100.92 222.163,93.885 213.722,83.038C210.389,83.281 207.09,83.406 203.841,83.406C200.291,83.406 196.801,83.26 193.389,82.966C190.564,82.723 187.83,82.371 185.17,81.934C182.113,92.475 181.758,103.751 184.067,115.853C192.376,122.054 202.105,126.172 212.369,127.81C221.017,123.315 231.073,116.331 241.117,105.481Z" style="fill:rgb(18,112,175);fill-rule:nonzero;"></path> </g> <g transform="matrix(4.16667,0,0,4.16667,0,0)"> <path d="M245.839,107.646C237.389,117.035 228.924,123.767 221.169,128.595C229.049,128.748 237.09,127.44 244.918,124.498C252.199,121.76 258.687,117.836 264.249,113.029C261.402,112.526 258.35,111.847 255.161,110.932C252.247,110.096 249.107,109.019 245.839,107.646Z" style="fill:rgb(18,112,175);fill-rule:nonzero;"></path> </g> <g transform="matrix(4.16667,0,0,4.16667,0,0)"> <path d="M200.313,15.595C202.482,10.123 205.207,5.673 207.679,2.314C205.063,2.935 202.458,3.728 199.876,4.699C194.161,6.848 188.935,9.727 184.262,13.189C189.76,13.912 195.02,14.976 200.04,16.306C200.131,16.068 200.221,15.828 200.313,15.595Z" style="fill:rgb(18,112,175);fill-rule:nonzero;"></path> </g> <g transform="matrix(4.16667,0,0,4.16667,0,0)"> <path d="M283.608,83.258C286.208,74.751 287.055,65.664 285.894,56.555C282.504,59.83 278.129,63.004 272.958,65.963C276.976,71.769 280.681,78.009 283.608,83.258Z" style="fill:rgb(18,112,175);fill-rule:nonzero;"></path> </g> <g transform="matrix(4.16667,0,0,4.16667,0,0)"> <path d="M277.067,42.857C276.596,47.595 275.599,53.282 273.69,59.694C278.384,56.721 282.183,53.598 284.818,50.489C284.177,47.669 283.342,44.86 282.296,42.077C280.942,38.476 279.298,35.069 277.401,31.872C277.534,35.039 277.479,38.719 277.067,42.857Z" style="fill:rgb(18,112,175);fill-rule:nonzero;"></path> </g> <g transform="matrix(4.16667,0,0,4.16667,0,0)"> <path d="M204.81,17.658C214.336,20.587 222.92,24.462 230.53,28.736C236.066,26.62 242.33,24.716 249.418,23.163C256.711,21.564 263.314,20.673 268.474,20.173C254.794,6 235.057,-1.28 215.146,1.005C212.412,3.992 207.935,9.672 204.821,17.626C204.817,17.637 204.814,17.647 204.81,17.658Z" style="fill:rgb(18,112,175);fill-rule:nonzero;"></path> </g> <g transform="matrix(4.16667,0,0,4.16667,0,0)"> <path d="M197.857,50.103C195.307,38.552 196.305,28.719 198.486,21.006C192.35,19.397 185.84,18.21 178.969,17.579C165.348,30.169 157.76,48.233 158.428,66.884C165.339,71.407 173.305,74.417 181.77,76.221C185.122,67.012 190.485,58.327 197.857,50.103Z" style="fill:rgb(18,112,175);fill-rule:nonzero;"></path> </g> <g transform="matrix(4.16667,0,0,4.16667,0,0)"> <path d="M219.587,82.487C226.496,90.714 234.83,97.117 244.505,101.668C245.681,100.291 246.856,98.863 248.025,97.373C255.594,87.726 260.87,78.574 264.531,70.27C257.87,73.313 250.325,76.01 242.155,78.192C234.625,80.203 227.046,81.637 219.587,82.487Z" style="fill:rgb(18,112,175);fill-rule:nonzero;"></path> </g> <g transform="matrix(4.16667,0,0,4.16667,0,0)"> <path d="M199.396,55.875C193.777,62.617 189.565,69.694 186.763,77.146C194.419,78.339 202.378,78.634 210.253,78.245C208.938,76.288 207.664,74.229 206.444,72.051C203.271,66.384 200.987,60.984 199.396,55.875Z" style="fill:rgb(18,112,175);fill-rule:nonzero;"></path> </g> <g transform="matrix(4.16667,0,0,4.16667,0,0)"> <path d="M230.153,34.214C220.357,38.169 210.784,43.73 203.237,51.55C204.819,57.474 207.321,63.509 210.753,69.638C212.374,72.531 214.131,75.254 215.996,77.842C224.696,77.05 233.172,75.479 240.881,73.42C249.977,70.991 258.411,67.808 265.595,64.229C263.777,61.842 261.935,59.634 260.112,57.751C253.578,51.003 243.504,42.022 230.153,34.214Z" style="fill:rgb(18,112,175);fill-rule:nonzero;"></path> </g> <g transform="matrix(4.16667,0,0,4.16667,0,0)"> <path d="M236.067,32.017C248.201,39.586 257.467,47.919 263.66,54.316C265.268,55.977 266.88,57.854 268.472,59.87C270.561,53.275 271.627,47.459 272.122,42.672C272.933,34.822 272.363,28.685 271.728,24.868C263.531,25.531 249.941,27.299 236.067,32.017Z" style="fill:rgb(18,112,175);fill-rule:nonzero;"></path> </g> <g transform="matrix(4.16667,0,0,4.16667,0,0)"> <path d="M251.911,100.422C251.022,101.554 250.131,102.651 249.24,103.721C251.537,104.62 253.901,105.425 256.337,106.13C260.823,107.428 265.045,108.229 268.769,108.717C274.12,103.085 278.372,96.546 281.359,89.466C278.485,84.133 274.404,76.958 269.904,70.271C266.065,79.454 260.355,89.659 251.911,100.422Z" style="fill:rgb(18,112,175);fill-rule:nonzero;"></path> </g> <g transform="matrix(4.16667,0,0,4.16667,0,0)"> <path d="M224.66,31.173C218.181,27.784 211.029,24.733 203.224,22.342C201.043,29.923 200.635,37.776 201.993,45.853C207.122,41.065 214.429,35.783 224.66,31.173Z" style="fill:rgb(18,112,175);fill-rule:nonzero;"></path> </g> <g transform="matrix(4.16667,0,0,4.16667,0,0)"> <path d="M272.122,42.672C271.627,47.459 270.561,53.275 268.472,59.87C266.88,57.854 265.268,55.977 263.66,54.316C257.467,47.919 248.201,39.586 236.067,32.017C249.941,27.299 263.531,25.531 271.728,24.868C272.363,28.685 272.933,34.822 272.122,42.672ZM240.881,73.42C233.172,75.479 224.696,77.05 215.996,77.842C214.131,75.254 212.374,72.531 210.753,69.638C207.321,63.509 204.819,57.474 203.237,51.55C210.784,43.73 220.357,38.169 230.153,34.214C243.504,42.022 253.578,51.003 260.112,57.751C261.935,59.634 263.777,61.842 265.595,64.229C258.411,67.808 249.977,70.991 240.881,73.42ZM248.025,97.373C246.856,98.863 245.681,100.291 244.505,101.668C234.83,97.117 226.496,90.714 219.587,82.487C227.046,81.637 234.625,80.203 242.155,78.192C250.325,76.01 257.87,73.313 264.531,70.27C260.87,78.574 255.594,87.726 248.025,97.373ZM186.763,77.146C189.565,69.694 193.777,62.617 199.396,55.875C200.987,60.984 203.271,66.384 206.444,72.051C207.664,74.229 208.938,76.288 210.253,78.245C202.378,78.634 194.419,78.339 186.763,77.146ZM203.224,22.342C211.029,24.733 218.181,27.784 224.66,31.173C214.429,35.783 207.122,41.065 201.993,45.853C200.635,37.776 201.043,29.923 203.224,22.342ZM272.958,65.963C278.129,63.004 282.504,59.83 285.894,56.555C285.636,54.532 285.277,52.508 284.818,50.489C282.183,53.598 278.384,56.721 273.69,59.694C275.599,53.282 276.596,47.595 277.067,42.857C277.479,38.719 277.534,35.039 277.401,31.872C274.853,27.579 271.847,23.667 268.474,20.173C263.314,20.673 256.711,21.564 249.418,23.163C242.33,24.716 236.066,26.62 230.53,28.736C222.92,24.462 214.336,20.587 204.81,17.658C204.814,17.647 204.817,17.637 204.821,17.626C207.935,9.672 212.412,3.992 215.146,1.005C212.656,1.292 210.163,1.723 207.679,2.314C205.207,5.673 202.482,10.123 200.313,15.595C200.221,15.828 200.131,16.068 200.04,16.306C195.02,14.976 189.76,13.912 184.262,13.189C182.408,14.563 180.645,16.031 178.969,17.579C185.84,18.21 192.35,19.397 198.486,21.006C196.305,28.719 195.307,38.552 197.857,50.103C190.485,58.327 185.122,67.012 181.77,76.221C173.305,74.417 165.339,71.407 158.428,66.884C158.502,68.919 158.671,70.962 158.943,73.005C165.185,76.584 172.292,79.257 180.226,80.995C177.551,90.417 176.896,100.378 178.243,110.938C180.092,112.696 182.037,114.337 184.067,115.853C181.758,103.751 182.113,92.475 185.17,81.934C187.83,82.371 190.564,82.723 193.389,82.966C196.801,83.26 200.291,83.406 203.841,83.406C207.09,83.406 210.389,83.281 213.722,83.038C222.163,93.885 231.945,100.92 241.117,105.481C231.073,116.331 221.017,123.315 212.369,127.81C215.266,128.272 218.206,128.537 221.169,128.595C228.924,123.767 237.389,117.035 245.839,107.646C249.107,109.019 252.247,110.096 255.161,110.932C258.35,111.847 261.402,112.526 264.249,113.029C265.832,111.661 267.339,110.222 268.769,108.717C265.045,108.229 260.823,107.428 256.337,106.13C253.901,105.425 251.537,104.62 249.24,103.721C250.131,102.651 251.022,101.554 251.911,100.422C260.355,89.659 266.065,79.454 269.904,70.271C274.404,76.958 278.485,84.133 281.359,89.466C282.214,87.438 282.964,85.366 283.608,83.258C280.681,78.009 276.976,71.769 272.958,65.963Z" style="fill:rgb(180,211,228);fill-rule:nonzero;"></path> </g> <g transform="matrix(4.16667,0,0,4.16667,0,0)"> <path d="M207.523,47.893C209.018,51.87 207.006,56.307 203.029,57.802C199.051,59.298 194.615,57.286 193.119,53.309C191.624,49.331 193.636,44.895 197.613,43.399C201.591,41.903 206.027,43.916 207.523,47.893Z" style="fill:white;fill-rule:nonzero;"></path> </g> <g transform="matrix(4.16667,0,0,4.16667,0,0)"> <path d="M208.796,16.881C210.292,20.858 208.279,25.295 204.302,26.791C200.325,28.286 195.888,26.274 194.393,22.296C192.897,18.319 194.909,13.883 198.887,12.387C202.864,10.892 207.301,12.904 208.796,16.881Z" style="fill:white;fill-rule:nonzero;"></path> </g> <g transform="matrix(4.16667,0,0,4.16667,0,0)"> <path d="M238.136,28.512C239.631,32.489 237.62,36.926 233.642,38.421C229.665,39.917 225.228,37.904 223.733,33.927C222.237,29.95 224.25,25.513 228.227,24.018C232.204,22.522 236.641,24.534 238.136,28.512Z" style="fill:white;fill-rule:nonzero;"></path> </g> <g transform="matrix(4.16667,0,0,4.16667,0,0)"> <path d="M221.756,77.625C223.252,81.602 221.24,86.039 217.263,87.534C213.285,89.03 208.849,87.018 207.353,83.04C205.858,79.063 207.87,74.626 211.847,73.131C215.825,71.635 220.261,73.647 221.756,77.625Z" style="fill:white;fill-rule:nonzero;"></path> </g> <g transform="matrix(4.16667,0,0,4.16667,0,0)"> <path d="M189.915,76.616C191.41,80.594 189.398,85.03 185.42,86.526C181.443,88.021 177.007,86.009 175.511,82.032C174.016,78.054 176.028,73.618 180.005,72.122C183.982,70.627 188.419,72.639 189.915,76.616Z" style="fill:white;fill-rule:nonzero;"></path> </g> <g transform="matrix(4.16667,0,0,4.16667,0,0)"> <path d="M252.265,102.419C253.76,106.397 251.748,110.834 247.771,112.329C243.793,113.825 239.357,111.813 237.861,107.835C236.366,103.858 238.378,99.421 242.355,97.926C246.333,96.431 250.769,98.443 252.265,102.419Z" style="fill:white;fill-rule:nonzero;"></path> </g> <g transform="matrix(4.16667,0,0,4.16667,0,0)"> <path d="M276.736,62.608C278.232,66.585 276.22,71.022 272.243,72.517C268.265,74.013 263.829,72 262.333,68.023C260.837,64.046 262.85,59.609 266.827,58.114C270.804,56.619 275.241,58.63 276.736,62.608Z" style="fill:white;fill-rule:nonzero;"></path> </g> </g> </svg> 